{"title":"The.Ten.Commandments.1956.720p.BRRip.XviD.AC3-PsychoLogic","uid":6607373,"size":6038653828,"categoryP":"video","categoryS":"hd___movies","magnet":"?xt=urn:btih:9e8d4eedf62b3c9cfdbb06f0b53fa77632b92363&amp;dn=The.Ten.Commandments.1956.720p.BRRip.XviD.AC3-PsychoLogic&amp;tr=udp%3A%2F%2Ftracker.openbittorrent.com%3A80&amp;tr=udp%3A%2F%2Fopen.demonii.com%3A1337&amp;tr=udp%3A%2F%2Ftracker.coppersurfer.tk%3A6969&amp;tr=udp%3A%2F%2Fexodus.desync.com%3A6969","seeders":0,"leechers":1,"uploader":"PsychoLogic","files":17,"time":1313456021,"description":"Release Information:\n\nThe.Ten.Commandments.1956.720p.BRRip.XviD.AC3-PsychoLogic\n\nSource                           : The.Ten.Commandments.1956.1080p.BluRay.X264-KaKa\nSubtitles                        : Arabic, Croatian, Czech, Danish, Dutch, English, Hebrew, Hrvatska, Romanian, Serbian, Slovenian, Spanish, Swedish\nLanguage                         : English\nEncoded By                       : PsychoLogic\nSample Included                  : Yes\n\nMovie Information                : http://www.imdb.com/title/tt0049833/\nGenre                            : Adventure | Drama | History\nDirector                         : Cecil B. DeMille\nCast                             : Charlton Heston, Yul Brynner and Anne Baxter\nPlot                             : The Egyptian Prince, Moses, learns of his true heritage as a Hebrew and his divine mission as the deliverer of his people. \n\nGeneral\nFormat                           : AVI\nFormat/Info                      : Audio Video Interleave\nFormat profile                   : OpenDML\nFile size                        : 5.59 GiB\nDuration                         : 3h 51mn\nOverall bit rate                 : 3 457 Kbps\nWriting application              : VirtualDubMod 1.5.10.2 (build 2542/release)\nWriting library                  : VirtualDubMod build 2542/release\n\nVideo\nID                               : 0\nFormat                           : MPEG-4 Visual\nFormat profile                   : Advanced Simple@L5\nFormat settings, BVOP            : 2\nFormat settings, QPel            : No\nFormat settings, GMC             : No warppoints\nFormat settings, Matrix          : Default (H.263)\nCodec ID                         : XVID\nCodec ID/Hint                    : XviD\nDuration                         : 3h 51mn\nBit rate                         : 3 000 Kbps\nWidth                            : 1 280 pixels\nHeight                           : 720 pixels\nDisplay aspect ratio             : 16:9\nFrame rate                       : 23.976 fps\nColor space                      : YUV\nChroma subsampling               : 4:2:0\nBit depth                        : 8 bits\nScan type                        : Progressive\nCompression mode                 : Lossy\nBits/(Pixel*Frame)               : 0.136\nStream size                      : 4.85 GiB (87%)\nWriting library                  : XviD 1.2.1 (UTC 2008-12-04)\n\nAudio\nID                               : 1\nFormat                           : AC-3\nFormat/Info                      : Audio Coding 3\nMode extension                   : CM (complete main)\nCodec ID                         : 2000\nDuration                         : 3h 51mn\nBit rate mode                    : Constant\nBit rate                         : 448 Kbps\nChannel(s)                       : 6 channels\nChannel positions                : Front: L C R, Side: L R, LFE\nSampling rate                    : 48.0 KHz\nBit depth                        : 16 bits\nCompression mode                 : Lossy\nStream size                      : 742 MiB (13%)\nAlignment                        : Split accross interleaves\nInterleave, duration             : 42 ms (1.00 video frame)\nInterleave, preload duration     : 500 ms\n\n","torrent":{"xt":"urn:btih:9e8d4eedf62b3c9cfdbb06f0b53fa77632b92363","amp;dn":"The.Ten.Commandments.1956.720p.BRRip.XviD.AC3-PsychoLogic","amp;tr":["udp%3A%2F%2Ftracker.openbittorrent.com%3A80","udp%3A%2F%2Fopen.demonii.com%3A1337","udp%3A%2F%2Ftracker.coppersurfer.tk%3A6969","udp%3A%2F%2Fexodus.desync.com%3A6969"],"infoHash":"9e8d4eedf62b3c9cfdbb06f0b53fa77632b92363","infoHashBuffer":{"type":"Buffer","data":[158,141,78,237,246,43,60,156,253,187,6,240,181,63,167,118,50,185,35,99]},"announce":[],"urlList":[]}}